<svg xmlns="http://www.w3.org/2000/svg" width="256" height="256"><path fill-opacity=".016" d="M0 128.004v128.004l128.25-.254 128.25-.254.254-127.75L257.008 0H0v128.004m.485.496c0 70.4.119 99.053.265 63.672.146-35.38.146-92.98 0-128C.604 29.153.485 58.1.485 128.5" fill="#14213d" fill-rule="evenodd"/><path fill-opacity=".231" d="M75 24.434c-26.26 5.535-48.989 23.451-60.457 47.655C8.812 84.184 6.754 93.6 6.694 108c-.042 9.838.421 14.31 2.174 21 4.613 17.613 16.095 35.207 30.02 46l7.096 5.5.008 24.827.008 24.827 3.001 3 3 3.001 13.59-.328c12.882-.31 13.69-.45 15.5-2.688 2.476-3.062 2.435-7.613-.091-10.139-1.704-1.704-3.333-2-11-2h-9v-16.607c0-15.413.126-16.557 1.75-15.915 6.659 2.635 17.893 4.6 27 4.723l10.25.138v19.176c0 24.315-1.102 22.855 17.601 23.312l13.398.328 3-3.001c3.532-3.531 3.764-5.914.928-9.519-1.962-2.495-2.546-2.635-11-2.635H115v-30.518l6.306-2.261c8.915-3.198 20.039-10.019 28.094-17.227 7.828-7.006 8.762-7.144 20.1-2.985 12.011 4.405 26.78 1.435 37.196-7.481 4.818-4.124 5.811-4.24 11.874-1.39 5.818 2.735 12.338 9.259 15.473 15.484 3.67 7.286 5.802 9.378 9.559 9.378 3.592 0 7.398-3.724 7.398-7.239 0-3.751-7.499-16.254-13.127-21.885-4.495-4.497-12.761-9.713-19.522-12.319-.082-.031.23-2.43.693-5.331 3.272-20.477-11.878-39.683-34.044-43.156-7.628-1.196-9.145-2.617-11.521-10.79-7.65-26.314-31.294-49.43-58.664-57.355-9.401-2.722-30.267-3.503-39.815-1.491m1.5 15.142c-9.095 2.006-21.459 8.035-28.976 14.128-26.089 21.149-33.438 57.411-17.782 87.751 5.483 10.628 19.102 23.814 30.258 29.299 10.889 5.353 19.013 7.213 31.59 7.231 18.192.027 34.448-6.117 47.592-17.988 11.496-10.381 18.997-12.171 31.414-7.497 8.868 3.338 14.72 3.258 21.54-.293 7.642-3.98 11.864-11.084 11.864-19.962 0-7.077-1.531-10.945-6.362-16.08-4.235-4.501-7.173-5.893-15.125-7.163-13.306-2.126-18.703-7.063-23.517-21.515-3.956-11.874-8.992-20.3-17.023-28.482-7.792-7.939-18.065-14.28-28.695-17.709-10.029-3.236-26.427-4.003-36.778-1.72M178 123c-2.78 2.78-2.576 7.515.455 10.545 3.259 3.26 6.058 3.096 9.724-.57 2.425-2.425 2.897-3.566 2.38-5.75C189.185 121.417 182 119 178 123" fill="#14213d" fill-rule="evenodd"/><path fill-opacity=".363" d="M76.734 24.514C59.938 27.701 43.696 36.267 31.7 48.263 21.674 58.289 14.589 70.118 9.995 84.5c-3.407 10.667-3.934 30.981-1.11 42.801 4.87 20.392 17.852 39.524 34.399 50.699l3.702 2.5.007 25.693C47.002 237.606 45.368 235 65.048 235c12.926 0 13.712-.115 15.778-2.314 2.727-2.904 2.759-5.673.101-9.051-1.962-2.495-2.546-2.635-11-2.635H61v-16.5c0-9.075.231-16.5.513-16.5.282 0 3.769.937 7.75 2.082 4.547 1.308 11.605 2.289 18.987 2.637l11.75.556v18.862C100 236.458 98.852 235 118 235c12.667 0 14.19-.19 16-2 1.111-1.111 2-3.333 2-5 0-5.498-2.79-7-13-7h-9v-30.518l6.25-2.255c9.538-3.442 19.43-9.336 28.083-16.732 8.526-7.288 11.518-8.175 17.372-5.148 1.645.851 5.934 2.09 9.531 2.752 11.453 2.111 22.561-1.184 31.37-9.303l4.407-4.063 4.418 1.687c9.008 3.441 16.487 10.79 20.615 20.26 2.749 6.303 7.545 8.091 12.01 4.476 3.082-2.496 2.929-6.622-.506-13.643-4.16-8.503-13.338-17.768-21.788-21.996l-7.051-3.527-.106-10.245c-.091-8.892-.459-11-2.785-15.963-3.468-7.398-10.722-15.097-17.22-18.277-2.832-1.386-8.425-3.143-12.429-3.906-8.405-1.602-10.753-3.325-12.275-9.008-6.163-23.023-25.353-45.318-47.375-55.043-14.643-6.466-34.702-8.898-49.787-6.034M74.5 39.563c-3.3.82-9.825 3.374-14.5 5.676-6.814 3.356-10.308 5.979-17.615 13.224-7.786 7.72-9.787 10.421-13.728 18.537-5.9 12.151-8.14 22.929-7.371 35.465 1.068 17.397 7.73 32.244 20.214 45.046 26.659 27.339 68.653 28.428 97.984 2.541 11.916-10.517 20.054-12.362 31.516-7.144 5.281 2.404 14.474 2.758 19.282.744 14.294-5.99 18.898-23.435 9.441-35.772-4.089-5.333-8.862-7.785-18.371-9.437-8.395-1.457-14.122-4.716-17.282-9.832-1.057-1.711-3.483-7.479-5.391-12.818-7.76-21.719-23.046-37.083-44.189-44.418-6.879-2.386-9.797-2.808-20.99-3.037-8.975-.183-14.858.196-19 1.225m104.135 83.51c-7.187 5.652 1.618 15.64 9.142 10.37 3.049-2.135 3.003-7.362-.091-10.269-2.904-2.727-5.673-2.759-9.051-.101" fill="#14213d" fill-rule="evenodd"/><path fill-opacity=".984" d="M73.255 25.569C45.656 31.617 21.129 53.49 11.917 80.271 6.533 95.919 5.667 113.793 9.553 129c4.341 16.982 16.205 35.109 29.898 45.681l7.538 5.819.005 25.076C47.001 237.12 45.726 235 64.704 235c15.07 0 17.629-1.016 17.629-7 0-5.4-2.959-7-12.944-7H61v-33.79l5.947 1.851c7.751 2.412 22.058 4.289 28.198 3.699l4.855-.466v18.898c0 18.732.022 18.921 2.455 21.353 2.352 2.353 2.99 2.455 15.365 2.455 11.547 0 13.189-.219 15.545-2.073 3.335-2.622 3.404-6.249.18-9.472-2.223-2.224-3.26-2.455-11-2.455H114v-15.531c0-13.909.183-15.591 1.75-16.099 12.899-4.184 24-10.54 33.621-19.253 7.177-6.5 9.352-7.028 16.493-4.004 4.677 1.981 7.337 2.387 15.636 2.387 8.715 0 10.722-.339 15.62-2.635 3.091-1.45 7.421-4.262 9.621-6.25 4.604-4.159 5.252-4.255 11.025-1.635 6.36 2.887 14.379 11 17.662 17.869 3.851 8.057 7.764 9.688 12.822 5.344 2.567-2.205 2.151-6.071-1.425-13.226-5.257-10.521-15.466-19.558-26.92-23.831-2.552-.953-2.578-1.061-1.578-6.578 1.978-10.913-2.18-23.463-10.559-31.87-5.661-5.679-12.84-9.196-21.638-10.599-9.055-1.445-10.664-2.809-13.148-11.149-8.522-28.617-32.157-50.978-61.256-57.954-9.795-2.348-28.721-2.553-38.471-.417M82.5 37.647c-29.911 4.812-53.766 26.687-60.087 55.099-2.45 11.011-1.593 27.19 1.999 37.754 7.848 23.082 29.025 42.192 52.088 47.005 21.623 4.511 44.343-1.165 60.823-15.196 10.33-8.795 12.335-10.07 17.617-11.203 5.031-1.079 5.472-1.003 20.299 3.481 8.047 2.434 14.791.9 21.325-4.852 5.771-5.08 8.385-10.522 8.414-17.517.054-12.864-8.844-22.074-23.301-24.122-3.527-.499-7.777-1.613-9.444-2.476-5.089-2.631-9.606-8.889-12.12-16.79-7.81-24.546-24.62-41.414-48.613-48.782-6.928-2.128-22.622-3.427-29-2.401m97.735 84.399c-6.553 2.606-3.738 12.954 3.525 12.954 2.465 0 6.24-4.055 6.24-6.704 0-4.503-5.425-7.976-9.765-6.25" fill="#14213d" fill-rule="evenodd"/></svg>